<svg xmlns="http://www.w3.org/2000/svg" viewBox="0 0 64 64" fill="none">
  <defs>
    <linearGradient id="g" x1="0" y1="0" x2="1" y2="1">
      <stop offset="0%" stop-color="#8247E5"/>
      <stop offset="100%" stop-color="#6C2BD9"/>
    </linearGradient>
  </defs>
  <path d="M21 14a7 7 0 0 1 7-7h8a7 7 0 0 1 7 7v8a7 7 0 0 1-7 7h-8a7 7 0 0 1-7-7v-8Z" fill="url(#g)"/>
  <path d="M10 40c0-4.418 3.582-8 8-8h28c4.418 0 8 3.582 8 8s-3.582 8-8 8H18c-4.418 0-8-3.582-8-8Z" fill="url(#g)" opacity="0.25"/>
</svg>

